PathFileType	4	(X/Y/Z)	C:/Users/beibeiliu/ov580/test_trc/User2\sequence.11_training_dense_left.trc
DataRate	CameraRate	NumFrames	NumMarkers	Units	OrigDataRate	OrigDataStartFrame	OrigNumFrames
120	120	7	19	mm	120	50	124
Frame#	Time	ThumbCMC			ThumbMCP			ThumbIP			ThumbTip			IndexMCP			IndexPIP			IndexTip			MiddleMCP			MiddlePIP			MiddleTip			RingMCP			RingPIP			RingTip			PinkyMCP			PinkyPIP			PinkyTip			BackHand1			BackHand2			BackHand3	
		X0	Y0	Z0	X1	Y1	Z1	X2	Y2	Z2	X3	Y3	Z3	X4	Y4	Z4	X5	Y5	Z5	X6	Y6	Z6	X7	Y7	Z7	X8	Y8	Z8	X9	Y9	Z9	X10	Y10	Z10	X11	Y11	Z11	X12	Y12	Z12	X13	Y13	Z13	X14	Y14	Z14	X15	Y15	Z15	X16	Y16	Z16	X17	Y17	Z17	X18	Y18	Z18	
49	0.408333	-219.527	15.1291	-38.9876	-187.98	35.8248	-34.0039	-150.556	41.0749	-35.2468	-125.143	23.4502	-35.0849	-179.194	9.48871	-110.251	-166.914	22.6175	-130.386	-153.895	31.7756	-149.285	-156.16	-11.3732	-104.443	-132.862	-0.943564	-123.522	-106.317	7.97794	-142.995	-136.366	-21.5299	-83.627	-113.699	-9.7291	-95.9251	-91.316	0.374085	-107.344	-133.392	-15.9906	-47.8273	-132.646	13.6906	-29.8685	-160.768	15.5189	-10.3342	-181.986	-46.5856	-53.9597	-208.134	-54.5382	-33.6181	-217.234	-29.4277	-58.2832	
50	0.416667	-229.896	2.482	-43.4287	-198.5	31.7693	-47.6222	-163.823	40.3828	-50.5321	-134.44	30.2169	-51.8908	-195.045	-2.8135	-116.303	-180.825	6.45362	-142.452	-173.742	17.0916	-163.046	-165.266	-19.6899	-113.672	-145.16	-9.3829	-137.6	-124.594	-0.27143	-156.906	-146.2	-25.7388	-94.716	-121.76	-13.8921	-110.425	-102.641	0.93131	-127.574	-134.729	-11.2426	-58.4039	-137.215	15.9158	-41.7802	-166.209	17.8036	-27.9298	-183.668	-52.569	-57.384	-203.084	-65.0523	-36.7976	-219.415	-41.5091	-62.8617	
51	0.425	-236.388	-8.23994	-49.7667	-210.181	25.4981	-59.3933	-175.252	33.3035	-67.5322	-144.143	24.1448	-72.0375	-205.406	-19.8212	-127.368	-198.631	-10.6021	-152.538	-189.897	-4.35384	-178.473	-178.19	-33.7437	-123.869	-165.276	-25.646	-149.783	-141.629	-17.2063	-178.039	-157.44	-35.4544	-108.632	-138.455	-24.8557	-128.583	-119.768	-13.6973	-144.534	-140.242	-19.7189	-71.9328	-148.237	13.7413	-60.3726	-174.977	10.1996	-46.1183	-186.892	-58.8469	-64.5948	-201.609	-71.8849	-37.2398	-225.422	-52.6461	-67.5044	
52	0.433333	-239.406	-20.4663	-56.8522	-220.249	12.122	-68.6275	-183.211	25.7699	-87.7025	-156.783	17.2629	-88.745	-216.465	-37.1278	-132.062	-212.975	-30.5602	-158.45	-207.034	-26.1563	-186.075	-188.34	-50.2397	-134.392	-181.09	-44.6979	-159.884	-167.546	-37.9218	-189.73	-165.322	-49.6534	-114.254	-153.071	-40.5186	-140.105	-136.616	-30.2455	-162.711	-148.393	-26.8657	-86.0436	-156.323	6.02259	-78.1533	-181.982	3.84434	-55.8699	-191.46	-65.7666	-69.7673	-204.183	-80.1109	-37.671	-230.147	-62.5838	-70.5681	
53	0.441667	-248.156	-23.743	-58.1588	-225.437	6.92005	-80.4637	-193.278	19.0515	-98.1535	-168.095	10.4094	-100.241	-230.411	-49.544	-134.116	-229.79	-45.389	-163.267	-227.955	-43.2484	-187.263	-206.148	-61.3516	-138.953	-195.822	-60.7319	-168.461	-184.618	-59.2335	-196	-181.44	-59.3514	-125.021	-166.695	-54.5489	-146.733	-157.65	-47.5908	-171.523	-160.107	-38.0233	-99.5541	-163.564	-4.0409	-96.5343	-185.042	-0.679838	-73.2196	-197.861	-76.015	-68.8413	-209.953	-82.7288	-41.364	-238.562	-68.3676	-71.0569	
54	0.45	-252.447	-24.8592	-64.0698	-232.102	2.03024	-83.3881	-201.378	11.3678	-106.264	-176.339	1.2134	-110.936	-245.113	-58.0731	-135.339	-247.57	-57.4267	-166.765	-246.852	-56.5247	-189.025	-218.795	-73.4684	-137.696	-216.135	-73.3184	-171.496	-209.73	-75.202	-201.109	-192.406	-71.24	-126.477	-181.022	-69.1362	-154.92	-176.366	-62.7943	-180.09	-169.927	-48.108	-109.945	-169.481	-15.7242	-109.893	-188.542	-9.17423	-85.1218	-207.903	-80.4986	-72.9421	-215.53	-82.9113	-39.8166	-247.119	-68.9768	-67.736	
55	0.458333	-253.889	-22.0044	-61.1698	-232.006	1.29044	-88.7881	-204.669	0.883265	-110.978	-180.613	-11.2824	-124.511	-263.075	-57.6744	-130.708	-268.656	-56.5103	-161.447	-271.348	-56.1772	-188.237	-245.514	-76.0053	-136.467	-247.627	-79.0351	-170.165	-241.761	-82.2712	-197.966	-218.485	-78.8884	-128.053	-208.69	-80.8792	-161.32	-204.352	-75.9982	-185.959	-185.948	-63.407	-116.593	-179.734	-32.0666	-122.398	-189.089	-16.9283	-90.38	-226.029	-81.1786	-73.6668	-231.494	-83.1177	-43.0838	-259.712	-67.6336	-62.05	
